<?xml version="1.0" encoding="UTF-8"?>
<svg id="Layer_2" data-name="Layer 2" xmlns="http://www.w3.org/2000/svg" viewBox="0 0 55.72 50">
  <defs>
    <style>
      .cls-1 {
        fill: #fff;
        fill-rule: evenodd;
      }
    </style>
  </defs>
  <g id="Layer_1-2" data-name="Layer 1">
    <path class="cls-1" d="M48.82,5.99h0C44.44,2.19,38.31,0,31.19,0,12.63,0,0,14.23,0,14.23l3.56,5.61s1.97,.16,.93-3.14c.9-1.69,2.66-3.96,6.1-6.59V47.48c-1.48,.42-3.44,1.2-2.11,2.52h10.22c1.35-1.34-.78-2.15-2.07-2.52v-8.81s7.01,2.73,14.56,2.73c6.64,0,12.68-1.96,17.17-5.51,4.49-3.52,7.39-8.78,7.37-14.79,.01-5.9-2.53-11.32-6.91-15.1Zm-5.42,26.95h0c-3.11,3.05-7.62,4.97-12.83,4.97-5.81,0-10.71-1.12-13.94-2.7V7.18c3.55-2.5,9.29-4.04,13.94-4.04,5.64,0,10.07,2.12,13.07,5.33,2.99,3.23,4.62,7.53,4.64,12.52-.02,4.86-1.76,8.87-4.87,11.94Z"/>
  </g>
</svg>