<?xml version="1.0" encoding="UTF-8"?>
<svg id="Layer_2" data-name="Layer 2" xmlns="http://www.w3.org/2000/svg" viewBox="0 0 40.15 50">
  <defs>
    <style>
      .cls-1 {
        fill: #fff;
      }
    </style>
  </defs>
  <g id="Layer_1-2" data-name="Layer 1">
    <path class="cls-1" d="M38.54,24.16h0c-1-1.46-2.38-2.62-4-3.32l-3.01-1.26,3.58-1.9c2.19-1.17,3.84-3.16,4.57-5.54,.73-2.38,.49-4.95-.67-7.15-1.16-2.2-3.15-3.85-5.52-4.58-2.38-.73-4.94-.49-7.14,.67L5.03,12.36c-1.56,.82-2.87,2.06-3.76,3.59S-.05,19.23,0,21c.06,1.77,.62,3.48,1.61,4.94,1,1.46,2.38,2.62,4,3.32l3.01,1.23-3.58,1.91c-2.13,1.2-3.71,3.19-4.4,5.54-.69,2.35-.44,4.88,.7,7.04,1.14,2.16,3.08,3.8,5.41,4.55,2.33,.76,4.86,.57,7.06-.51l21.31-11.29c1.56-.82,2.87-2.06,3.76-3.59,.89-1.53,1.33-3.28,1.27-5.04-.06-1.77-.62-3.48-1.61-4.94Zm-23.47,7.53v-13.29l12.53,6.65-12.53,6.64Z"/>
  </g>
</svg>