<?xml version="1.0" encoding="UTF-8"?>
<svg id="Layer_2" data-name="Layer 2" xmlns="http://www.w3.org/2000/svg" viewBox="0 0 55.37 45">
  <defs>
    <style>
      .cls-1 {
        fill: #fff;
      }
    </style>
  </defs>
  <g id="Layer_1-2" data-name="Layer 1">
    <path class="cls-1" d="M55.37,5.33c-2.07,.92-4.27,1.52-6.52,1.79,2.37-1.42,4.15-3.65,4.99-6.29-2.23,1.32-4.67,2.26-7.21,2.76C44.48,1.29,41.48,0,38.34,0,32.07,0,26.98,5.09,26.98,11.36c0,.89,.1,1.75,.29,2.59-9.45-.48-17.81-5-23.42-11.87-1.01,1.73-1.54,3.7-1.54,5.71,0,3.94,2.01,7.42,5.05,9.46-1.8-.06-3.57-.54-5.15-1.42,0,.05,0,.1,0,.14,0,5.51,3.92,10.1,9.11,11.14-.98,.26-1.98,.4-2.99,.4-.73,0-1.45-.07-2.14-.2,1.45,4.51,5.64,7.8,10.61,7.89-4.02,3.16-8.99,4.87-14.11,4.86-.91,0-1.81-.05-2.71-.16,5.19,3.34,11.24,5.11,17.41,5.1,20.9,0,32.32-17.31,32.32-32.32,0-.49-.01-.98-.03-1.47,2.22-1.61,4.14-3.6,5.67-5.88Z"/>
  </g>
</svg>