<?xml version="1.0" encoding="UTF-8"?>
<svg id="Layer_2" data-name="Layer 2" xmlns="http://www.w3.org/2000/svg" viewBox="0 0 430.6 431.6">
  <defs>
    <style>
      .cls-1 {
        fill: #fff;
      }
    </style>
  </defs>
  <g id="Layer_1-2" data-name="Layer 1">
    <g>
      <g>
        <g>
          <path d="M0,0V279.23H146.4V145.21h132.89V0H0ZM273.29,139.21H140.4v134.02H6V6H273.29V139.21Z"/>
          <polygon class="cls-1" points="273.29 6 273.29 139.21 140.4 139.21 140.4 273.23 6 273.23 6 6 273.29 6"/>
        </g>
        <g>
          <path class="cls-1" d="M156.32,156.35V425.6H424.6V156.35H156.32Zm252.92,251.93H172.34V171.61h236.9v236.67Z"/>
          <path d="M172.34,171.61v236.67h236.9V171.61H172.34Zm191.57,191.34H217.68V216.78h146.23v146.17Z"/>
          <path d="M150.32,150.35V431.6H430.6V150.35H150.32ZM424.6,425.6H156.32V156.35H424.6V425.6Z"/>
        </g>
        <g>
          <path class="cls-1" d="M217.68,216.78v146.17h146.23V216.78H217.68Zm131,130.28h-115.78v-113.79h115.78v113.79Z"/>
          <path d="M232.9,233.27v113.79h115.78v-113.79h-115.78Zm109.78,107.79h-103.78v-101.79h103.78v101.79Z"/>
        </g>
      </g>
      <g>
        <path d="M372.23,88.2v-31.36h-30.99v-17.19l-9.81,8.04-16.73,13.74-5.65,4.64,5.65,4.64,16.73,13.73,6.31,5.18,6.88,8.38,13.74,16.74,4.64,5.65,4.63-5.65,13.74-16.74,8.05-9.8h-17.19Zm-12.47,6v-24.9h-24.52v10.5l-16.74-13.73,16.74-13.74v10.5h30.99v31.37h10.5l-13.73,16.73-13.74-16.73h10.5Zm-18.52-18.9h12.52v12.9h-12.52v-12.9Z"/>
        <polygon class="cls-1" points="376.73 94.2 363 110.93 349.26 94.2 359.76 94.2 359.76 69.3 335.24 69.3 335.24 79.8 318.5 66.07 335.24 52.33 335.24 62.83 366.23 62.84 366.23 94.2 376.73 94.2"/>
      </g>
    </g>
  </g>
</svg>