<?xml version="1.0" encoding="UTF-8"?>
<svg id="Layer_2" data-name="Layer 2" xmlns="http://www.w3.org/2000/svg" viewBox="0 0 144.73 141.82">
  <defs>
    <style>
      .cls-1 {
        fill: #fff;
      }

      .cls-2 {
        fill: #ff4800;
      }
    </style>
  </defs>
  <g id="Layer_1-2" data-name="Layer 1">
    <path class="cls-1" d="M132.14,57.11c-1.63-7.04,6-17.73,2.47-23.6-3.66-6.09-16.74-4.34-21.99-8.9-5.31-4.6-5.42-17.79-11.88-20.54-6.4-2.72-15.95,6.32-23.02,5.7-6.83-.6-14.64-11.24-21.68-9.61-7.04,1.63-9.4,14.61-15.27,18.14-6.09,3.66-18.63-.29-23.19,4.97-4.6,5.31,1.07,17.2-1.68,23.67C13.17,53.34,.64,57.5,.02,64.58c-.6,6.83,10.95,13.09,12.57,20.13,1.63,7.04-6,17.73-2.47,23.6,3.66,6.09,16.74,4.34,21.99,8.9,5.31,4.6,5.42,17.79,11.88,20.54,6.4,2.72,15.95-6.32,23.02-5.7,6.83,.6,14.64,11.24,21.68,9.61s9.4-14.61,15.27-18.14c6.09-3.66,18.63,.29,23.19-4.97,4.6-5.31-1.07-17.2,1.68-23.67,2.72-6.4,15.25-10.56,15.87-17.64,.6-6.83-10.95-13.09-12.57-20.13Z"/>
    <g>
      <rect class="cls-2" x="27.63" y="42.03" width="3.61" height="3.61" transform="translate(-9.11 7.75) rotate(-13)"/>
      <rect class="cls-2" x="31.15" y="41.21" width="3.61" height="3.61" transform="translate(-8.83 8.52) rotate(-13)"/>
      <rect class="cls-2" x="34.67" y="40.4" width="3.61" height="3.61" transform="translate(-8.56 9.29) rotate(-13)"/>
      <rect class="cls-2" x="38.19" y="39.59" width="3.61" height="3.61" transform="translate(-8.29 10.06) rotate(-13)"/>
      <rect class="cls-2" x="41.72" y="38.77" width="3.61" height="3.61" transform="translate(-8.01 10.83) rotate(-13)"/>
      <rect class="cls-2" x="45.24" y="37.96" width="3.61" height="3.61" transform="translate(-7.74 11.6) rotate(-13)"/>
      <rect class="cls-2" x="48.76" y="37.15" width="3.61" height="3.61" transform="translate(-7.47 12.37) rotate(-13)"/>
      <rect class="cls-2" x="62.84" y="33.9" width="3.61" height="3.61" transform="translate(-6.37 15.46) rotate(-13)"/>
      <rect class="cls-2" x="66.36" y="33.09" width="3.61" height="3.61" transform="translate(-6.1 16.23) rotate(-13)"/>
      <rect class="cls-2" x="69.88" y="32.27" width="3.61" height="3.61" transform="translate(-5.83 17) rotate(-13)"/>
      <rect class="cls-2" x="76.92" y="30.65" width="3.61" height="3.61" transform="translate(-5.28 18.54) rotate(-13)"/>
      <rect class="cls-2" x="80.44" y="29.83" width="3.61" height="3.61" transform="translate(-5.01 19.31) rotate(-13)"/>
      <rect class="cls-2" x="83.96" y="29.02" width="3.61" height="3.61" transform="translate(-4.74 20.08) rotate(-13)"/>
      <rect class="cls-2" x="87.48" y="28.21" width="3.61" height="3.61" transform="translate(-4.46 20.86) rotate(-13)"/>
      <rect class="cls-2" x="91" y="27.4" width="3.61" height="3.61" transform="translate(-4.19 21.63) rotate(-13)"/>
      <rect class="cls-2" x="94.52" y="26.58" width="3.61" height="3.61" transform="translate(-3.92 22.4) rotate(-13)"/>
      <rect class="cls-2" x="98.04" y="25.77" width="3.61" height="3.61" transform="translate(-3.64 23.17) rotate(-13)"/>
      <rect class="cls-2" x="28.45" y="45.55" width="3.61" height="3.61" transform="translate(-9.88 8.02) rotate(-13)"/>
      <rect class="cls-2" x="49.57" y="40.67" width="3.61" height="3.61" transform="translate(-8.24 12.65) rotate(-13)"/>
      <rect class="cls-2" x="56.61" y="39.04" width="3.61" height="3.61" transform="translate(-7.69 14.19) rotate(-13)"/>
      <rect class="cls-2" x="60.13" y="38.23" width="3.61" height="3.61" transform="translate(-7.42 14.96) rotate(-13)"/>
      <rect class="cls-2" x="63.65" y="37.42" width="3.61" height="3.61" transform="translate(-7.15 15.73) rotate(-13)"/>
      <rect class="cls-2" x="70.69" y="35.79" width="3.61" height="3.61" transform="translate(-6.6 17.27) rotate(-13)"/>
      <rect class="cls-2" x="77.73" y="34.17" width="3.61" height="3.61" transform="translate(-6.05 18.81) rotate(-13)"/>
      <rect class="cls-2" x="98.86" y="29.29" width="3.61" height="3.61" transform="translate(-4.42 23.44) rotate(-13)"/>
      <rect class="cls-2" x="29.26" y="49.07" width="3.61" height="3.61" transform="translate(-10.65 8.29) rotate(-13)"/>
      <rect class="cls-2" x="36.3" y="47.44" width="3.61" height="3.61" transform="translate(-10.1 9.83) rotate(-13)"/>
      <rect class="cls-2" x="39.82" y="46.63" width="3.61" height="3.61" transform="translate(-9.83 10.61) rotate(-13)"/>
      <rect class="cls-2" x="43.34" y="45.82" width="3.61" height="3.61" transform="translate(-9.56 11.38) rotate(-13)"/>
      <rect class="cls-2" x="50.38" y="44.19" width="3.61" height="3.61" transform="translate(-9.01 12.92) rotate(-13)"/>
      <rect class="cls-2" x="64.46" y="40.94" width="3.61" height="3.61" transform="translate(-7.92 16) rotate(-13)"/>
      <rect class="cls-2" x="67.98" y="40.13" width="3.61" height="3.61" transform="translate(-7.64 16.77) rotate(-13)"/>
      <rect class="cls-2" x="71.51" y="39.31" width="3.61" height="3.61" transform="translate(-7.37 17.55) rotate(-13)"/>
      <rect class="cls-2" x="78.55" y="37.69" width="3.61" height="3.61" transform="translate(-6.82 19.09) rotate(-13)"/>
      <rect class="cls-2" x="85.59" y="36.06" width="3.61" height="3.61" transform="translate(-6.28 20.63) rotate(-13)"/>
      <rect class="cls-2" x="89.11" y="35.25" width="3.61" height="3.61" transform="translate(-6.01 21.4) rotate(-13)"/>
      <rect class="cls-2" x="92.63" y="34.44" width="3.61" height="3.61" transform="translate(-5.73 22.17) rotate(-13)"/>
      <rect class="cls-2" x="99.67" y="32.81" width="3.61" height="3.61" transform="translate(-5.19 23.71) rotate(-13)"/>
      <rect class="cls-2" x="30.07" y="52.59" width="3.61" height="3.61" transform="translate(-11.42 8.57) rotate(-13)"/>
      <rect class="cls-2" x="37.11" y="50.96" width="3.61" height="3.61" transform="translate(-10.87 10.11) rotate(-13)"/>
      <rect class="cls-2" x="40.63" y="50.15" width="3.61" height="3.61" transform="translate(-10.6 10.88) rotate(-13)"/>
      <rect class="cls-2" x="44.15" y="49.34" width="3.61" height="3.61" transform="translate(-10.33 11.65) rotate(-13)"/>
      <rect class="cls-2" x="51.19" y="47.71" width="3.61" height="3.61" transform="translate(-9.78 13.19) rotate(-13)"/>
      <rect class="cls-2" x="58.24" y="46.09" width="3.61" height="3.61" transform="translate(-9.23 14.73) rotate(-13)"/>
      <rect class="cls-2" x="61.76" y="45.27" width="3.61" height="3.61" transform="translate(-8.96 15.51) rotate(-13)"/>
      <rect class="cls-2" x="72.32" y="42.83" width="3.61" height="3.61" transform="translate(-8.14 17.82) rotate(-13)"/>
      <rect class="cls-2" x="79.36" y="41.21" width="3.61" height="3.61" transform="translate(-7.6 19.36) rotate(-13)"/>
      <rect class="cls-2" x="86.4" y="39.58" width="3.61" height="3.61" transform="translate(-7.05 20.9) rotate(-13)"/>
      <rect class="cls-2" x="89.92" y="38.77" width="3.61" height="3.61" transform="translate(-6.78 21.67) rotate(-13)"/>
      <rect class="cls-2" x="93.44" y="37.96" width="3.61" height="3.61" transform="translate(-6.5 22.45) rotate(-13)"/>
      <rect class="cls-2" x="100.48" y="36.33" width="3.61" height="3.61" transform="translate(-5.96 23.99) rotate(-13)"/>
      <rect class="cls-2" x="30.88" y="56.11" width="3.61" height="3.61" transform="translate(-12.19 8.84) rotate(-13)"/>
      <rect class="cls-2" x="37.93" y="54.48" width="3.61" height="3.61" transform="translate(-11.64 10.38) rotate(-13)"/>
      <rect class="cls-2" x="41.45" y="53.67" width="3.61" height="3.61" transform="translate(-11.37 11.15) rotate(-13)"/>
      <rect class="cls-2" x="44.97" y="52.86" width="3.61" height="3.61" transform="translate(-11.1 11.92) rotate(-13)"/>
      <rect class="cls-2" x="52.01" y="51.23" width="3.61" height="3.61" transform="translate(-10.55 13.46) rotate(-13)"/>
      <rect class="cls-2" x="62.57" y="48.79" width="3.61" height="3.61" transform="translate(-9.73 15.78) rotate(-13)"/>
      <rect class="cls-2" x="73.13" y="46.35" width="3.61" height="3.61" transform="translate(-8.91 18.09) rotate(-13)"/>
      <rect class="cls-2" x="80.17" y="44.73" width="3.61" height="3.61" transform="translate(-8.37 19.63) rotate(-13)"/>
      <rect class="cls-2" x="87.21" y="43.1" width="3.61" height="3.61" transform="translate(-7.82 21.18) rotate(-13)"/>
      <rect class="cls-2" x="90.73" y="42.29" width="3.61" height="3.61" transform="translate(-7.55 21.95) rotate(-13)"/>
      <rect class="cls-2" x="94.25" y="41.48" width="3.61" height="3.61" transform="translate(-7.27 22.72) rotate(-13)"/>
      <rect class="cls-2" x="101.3" y="39.85" width="3.61" height="3.61" transform="translate(-6.73 24.26) rotate(-13)"/>
      <rect class="cls-2" x="31.7" y="59.63" width="3.61" height="3.61" transform="translate(-12.96 9.11) rotate(-13)"/>
      <rect class="cls-2" x="52.82" y="54.75" width="3.61" height="3.61" transform="translate(-11.32 13.74) rotate(-13)"/>
      <rect class="cls-2" x="59.86" y="53.13" width="3.61" height="3.61" transform="translate(-10.78 15.28) rotate(-13)"/>
      <rect class="cls-2" x="70.42" y="50.69" width="3.61" height="3.61" transform="translate(-9.96 17.59) rotate(-13)"/>
      <rect class="cls-2" x="80.99" y="48.25" width="3.61" height="3.61" transform="translate(-9.14 19.91) rotate(-13)"/>
      <rect class="cls-2" x="102.11" y="43.37" width="3.61" height="3.61" transform="translate(-7.5 24.53) rotate(-13)"/>
      <rect class="cls-2" x="32.51" y="63.15" width="3.61" height="3.61" transform="translate(-13.73 9.38) rotate(-13)"/>
      <rect class="cls-2" x="36.03" y="62.34" width="3.61" height="3.61" transform="translate(-13.46 10.16) rotate(-13)"/>
      <rect class="cls-2" x="39.55" y="61.52" width="3.61" height="3.61" transform="translate(-13.19 10.93) rotate(-13)"/>
      <rect class="cls-2" x="43.07" y="60.71" width="3.61" height="3.61" transform="translate(-12.91 11.7) rotate(-13)"/>
      <rect class="cls-2" x="46.59" y="59.9" width="3.61" height="3.61" transform="translate(-12.64 12.47) rotate(-13)"/>
      <rect class="cls-2" x="50.11" y="59.09" width="3.61" height="3.61" transform="translate(-12.37 13.24) rotate(-13)"/>
      <rect class="cls-2" x="53.63" y="58.27" width="3.61" height="3.61" transform="translate(-12.09 14.01) rotate(-13)"/>
      <rect class="cls-2" x="60.67" y="56.65" width="3.61" height="3.61" transform="translate(-11.55 15.55) rotate(-13)"/>
      <rect class="cls-2" x="67.72" y="55.02" width="3.61" height="3.61" transform="translate(-11 17.1) rotate(-13)"/>
      <rect class="cls-2" x="74.76" y="53.4" width="3.61" height="3.61" transform="translate(-10.46 18.64) rotate(-13)"/>
      <rect class="cls-2" x="81.8" y="51.77" width="3.61" height="3.61" transform="translate(-9.91 20.18) rotate(-13)"/>
      <rect class="cls-2" x="85.32" y="50.96" width="3.61" height="3.61" transform="translate(-9.64 20.95) rotate(-13)"/>
      <rect class="cls-2" x="88.84" y="50.14" width="3.61" height="3.61" transform="translate(-9.36 21.72) rotate(-13)"/>
      <rect class="cls-2" x="92.36" y="49.33" width="3.61" height="3.61" transform="translate(-9.09 22.49) rotate(-13)"/>
      <rect class="cls-2" x="95.88" y="48.52" width="3.61" height="3.61" transform="translate(-8.82 23.26) rotate(-13)"/>
      <rect class="cls-2" x="99.4" y="47.71" width="3.61" height="3.61" transform="translate(-8.54 24.04) rotate(-13)"/>
      <rect class="cls-2" x="102.92" y="46.89" width="3.61" height="3.61" transform="translate(-8.27 24.81) rotate(-13)"/>
      <rect class="cls-2" x="65.01" y="59.35" width="3.61" height="3.61" transform="translate(-12.05 16.6) rotate(-13)"/>
      <rect class="cls-2" x="34.14" y="70.19" width="3.61" height="3.61" transform="translate(-15.27 9.93) rotate(-13)"/>
      <rect class="cls-2" x="37.66" y="69.38" width="3.61" height="3.61" transform="translate(-15 10.7) rotate(-13)"/>
      <rect class="cls-2" x="41.18" y="68.57" width="3.61" height="3.61" transform="translate(-14.73 11.47) rotate(-13)"/>
      <rect class="cls-2" x="44.7" y="67.75" width="3.61" height="3.61" transform="translate(-14.46 12.24) rotate(-13)"/>
      <rect class="cls-2" x="48.22" y="66.94" width="3.61" height="3.61" transform="translate(-14.18 13.01) rotate(-13)"/>
      <rect class="cls-2" x="55.26" y="65.31" width="3.61" height="3.61" transform="translate(-13.64 14.56) rotate(-13)"/>
      <rect class="cls-2" x="58.78" y="64.5" width="3.61" height="3.61" transform="translate(-13.36 15.33) rotate(-13)"/>
      <rect class="cls-2" x="62.3" y="63.69" width="3.61" height="3.61" transform="translate(-13.09 16.1) rotate(-13)"/>
      <rect class="cls-2" x="72.86" y="61.25" width="3.61" height="3.61" transform="translate(-12.27 18.41) rotate(-13)"/>
      <rect class="cls-2" x="79.9" y="59.62" width="3.61" height="3.61" transform="translate(-11.72 19.96) rotate(-13)"/>
      <rect class="cls-2" x="86.94" y="58" width="3.61" height="3.61" transform="translate(-11.18 21.5) rotate(-13)"/>
      <rect class="cls-2" x="93.99" y="56.37" width="3.61" height="3.61" transform="translate(-10.63 23.04) rotate(-13)"/>
      <rect class="cls-2" x="101.03" y="54.75" width="3.61" height="3.61" transform="translate(-10.09 24.58) rotate(-13)"/>
      <rect class="cls-2" x="38.47" y="72.9" width="3.61" height="3.61" transform="translate(-15.77 10.97) rotate(-13)"/>
      <rect class="cls-2" x="45.51" y="71.27" width="3.61" height="3.61" transform="translate(-15.23 12.52) rotate(-13)"/>
      <rect class="cls-2" x="49.03" y="70.46" width="3.61" height="3.61" transform="translate(-14.95 13.29) rotate(-13)"/>
      <rect class="cls-2" x="52.55" y="69.65" width="3.61" height="3.61" transform="translate(-14.68 14.06) rotate(-13)"/>
      <rect class="cls-2" x="59.59" y="68.02" width="3.61" height="3.61" transform="translate(-14.13 15.6) rotate(-13)"/>
      <rect class="cls-2" x="66.63" y="66.4" width="3.61" height="3.61" transform="translate(-13.59 17.14) rotate(-13)"/>
      <rect class="cls-2" x="70.15" y="65.58" width="3.61" height="3.61" transform="translate(-13.32 17.91) rotate(-13)"/>
      <rect class="cls-2" x="73.67" y="64.77" width="3.61" height="3.61" transform="translate(-13.04 18.69) rotate(-13)"/>
      <rect class="cls-2" x="77.19" y="63.96" width="3.61" height="3.61" transform="translate(-12.77 19.46) rotate(-13)"/>
      <rect class="cls-2" x="80.72" y="63.14" width="3.61" height="3.61" transform="translate(-12.5 20.23) rotate(-13)"/>
      <rect class="cls-2" x="84.24" y="62.33" width="3.61" height="3.61" transform="translate(-12.22 21) rotate(-13)"/>
      <rect class="cls-2" x="46.32" y="74.79" width="3.61" height="3.61" transform="translate(-16 12.79) rotate(-13)"/>
      <rect class="cls-2" x="49.84" y="73.98" width="3.61" height="3.61" transform="translate(-15.72 13.56) rotate(-13)"/>
      <rect class="cls-2" x="56.88" y="72.35" width="3.61" height="3.61" transform="translate(-15.18 15.1) rotate(-13)"/>
      <rect class="cls-2" x="67.45" y="69.92" width="3.61" height="3.61" transform="translate(-14.36 17.42) rotate(-13)"/>
      <rect class="cls-2" x="78.01" y="67.48" width="3.61" height="3.61" transform="translate(-13.54 19.73) rotate(-13)"/>
      <rect class="cls-2" x="85.05" y="65.85" width="3.61" height="3.61" transform="translate(-12.99 21.27) rotate(-13)"/>
      <rect class="cls-2" x="88.57" y="65.04" width="3.61" height="3.61" transform="translate(-12.72 22.04) rotate(-13)"/>
      <rect class="cls-2" x="95.61" y="63.41" width="3.61" height="3.61" transform="translate(-12.17 23.59) rotate(-13)"/>
      <rect class="cls-2" x="102.65" y="61.79" width="3.61" height="3.61" transform="translate(-11.63 25.13) rotate(-13)"/>
      <rect class="cls-2" x="36.57" y="80.75" width="3.61" height="3.61" transform="translate(-17.59 10.75) rotate(-13)"/>
      <rect class="cls-2" x="40.09" y="79.94" width="3.61" height="3.61" transform="translate(-17.32 11.52) rotate(-13)"/>
      <rect class="cls-2" x="61.22" y="75.06" width="3.61" height="3.61" transform="translate(-15.68 16.15) rotate(-13)"/>
      <rect class="cls-2" x="64.74" y="74.25" width="3.61" height="3.61" transform="translate(-15.4 16.92) rotate(-13)"/>
      <rect class="cls-2" x="71.78" y="72.62" width="3.61" height="3.61" transform="translate(-14.86 18.46) rotate(-13)"/>
      <rect class="cls-2" x="75.3" y="71.81" width="3.61" height="3.61" transform="translate(-14.58 19.23) rotate(-13)"/>
      <rect class="cls-2" x="78.82" y="71" width="3.61" height="3.61" transform="translate(-14.31 20) rotate(-13)"/>
      <rect class="cls-2" x="82.34" y="70.19" width="3.61" height="3.61" transform="translate(-14.04 20.77) rotate(-13)"/>
      <rect class="cls-2" x="85.86" y="69.37" width="3.61" height="3.61" transform="translate(-13.77 21.55) rotate(-13)"/>
      <rect class="cls-2" x="96.42" y="66.94" width="3.61" height="3.61" transform="translate(-12.95 23.86) rotate(-13)"/>
      <rect class="cls-2" x="103.46" y="65.31" width="3.61" height="3.61" transform="translate(-12.4 25.4) rotate(-13)"/>
      <rect class="cls-2" x="106.99" y="64.5" width="3.61" height="3.61" transform="translate(-12.13 26.17) rotate(-13)"/>
      <rect class="cls-2" x="44.43" y="82.65" width="3.61" height="3.61" transform="translate(-17.81 12.56) rotate(-13)"/>
      <rect class="cls-2" x="51.47" y="81.02" width="3.61" height="3.61" transform="translate(-17.27 14.11) rotate(-13)"/>
      <rect class="cls-2" x="58.51" y="79.4" width="3.61" height="3.61" transform="translate(-16.72 15.65) rotate(-13)"/>
      <rect class="cls-2" x="62.03" y="78.58" width="3.61" height="3.61" transform="translate(-16.45 16.42) rotate(-13)"/>
      <rect class="cls-2" x="79.63" y="74.52" width="3.61" height="3.61" transform="translate(-15.08 20.28) rotate(-13)"/>
      <rect class="cls-2" x="90.19" y="72.08" width="3.61" height="3.61" transform="translate(-14.26 22.59) rotate(-13)"/>
      <rect class="cls-2" x="97.24" y="70.46" width="3.61" height="3.61" transform="translate(-13.72 24.13) rotate(-13)"/>
      <rect class="cls-2" x="100.76" y="69.64" width="3.61" height="3.61" transform="translate(-13.44 24.9) rotate(-13)"/>
      <rect class="cls-2" x="104.28" y="68.83" width="3.61" height="3.61" transform="translate(-13.17 25.67) rotate(-13)"/>
      <rect class="cls-2" x="107.8" y="68.02" width="3.61" height="3.61" transform="translate(-12.9 26.45) rotate(-13)"/>
      <rect class="cls-2" x="66.36" y="81.29" width="3.61" height="3.61" transform="translate(-16.95 17.46) rotate(-13)"/>
      <rect class="cls-2" x="80.45" y="78.04" width="3.61" height="3.61" transform="translate(-15.85 20.55) rotate(-13)"/>
      <rect class="cls-2" x="91.01" y="75.6" width="3.61" height="3.61" transform="translate(-15.03 22.86) rotate(-13)"/>
      <rect class="cls-2" x="98.05" y="73.98" width="3.61" height="3.61" transform="translate(-14.49 24.4) rotate(-13)"/>
      <rect class="cls-2" x="105.09" y="72.35" width="3.61" height="3.61" transform="translate(-13.94 25.95) rotate(-13)"/>
      <rect class="cls-2" x="108.61" y="71.54" width="3.61" height="3.61" transform="translate(-13.67 26.72) rotate(-13)"/>
      <rect class="cls-2" x="39.01" y="91.31" width="3.61" height="3.61" transform="translate(-19.9 11.57) rotate(-13)"/>
      <rect class="cls-2" x="42.53" y="90.5" width="3.61" height="3.61" transform="translate(-19.63 12.34) rotate(-13)"/>
      <rect class="cls-2" x="46.05" y="89.69" width="3.61" height="3.61" transform="translate(-19.36 13.11) rotate(-13)"/>
      <rect class="cls-2" x="49.57" y="88.88" width="3.61" height="3.61" transform="translate(-19.08 13.88) rotate(-13)"/>
      <rect class="cls-2" x="53.09" y="88.06" width="3.61" height="3.61" transform="translate(-18.81 14.65) rotate(-13)"/>
      <rect class="cls-2" x="56.61" y="87.25" width="3.61" height="3.61" transform="translate(-18.54 15.42) rotate(-13)"/>
      <rect class="cls-2" x="60.14" y="86.44" width="3.61" height="3.61" transform="translate(-18.26 16.2) rotate(-13)"/>
      <rect class="cls-2" x="67.18" y="84.81" width="3.61" height="3.61" transform="translate(-17.72 17.74) rotate(-13)"/>
      <rect class="cls-2" x="74.22" y="83.19" width="3.61" height="3.61" transform="translate(-17.17 19.28) rotate(-13)"/>
      <rect class="cls-2" x="77.74" y="82.37" width="3.61" height="3.61" transform="translate(-16.9 20.05) rotate(-13)"/>
      <rect class="cls-2" x="84.78" y="80.75" width="3.61" height="3.61" transform="translate(-16.35 21.59) rotate(-13)"/>
      <rect class="cls-2" x="95.34" y="78.31" width="3.61" height="3.61" transform="translate(-15.53 23.91) rotate(-13)"/>
      <rect class="cls-2" x="102.38" y="76.68" width="3.61" height="3.61" transform="translate(-14.99 25.45) rotate(-13)"/>
      <rect class="cls-2" x="39.82" y="94.83" width="3.61" height="3.61" transform="translate(-20.67 11.84) rotate(-13)"/>
      <rect class="cls-2" x="60.95" y="89.96" width="3.61" height="3.61" transform="translate(-19.03 16.47) rotate(-13)"/>
      <rect class="cls-2" x="75.03" y="86.71" width="3.61" height="3.61" transform="translate(-17.94 19.55) rotate(-13)"/>
      <rect class="cls-2" x="92.63" y="82.64" width="3.61" height="3.61" transform="translate(-16.58 23.41) rotate(-13)"/>
      <rect class="cls-2" x="96.15" y="81.83" width="3.61" height="3.61" transform="translate(-16.3 24.18) rotate(-13)"/>
      <rect class="cls-2" x="99.67" y="81.02" width="3.61" height="3.61" transform="translate(-16.03 24.95) rotate(-13)"/>
      <rect class="cls-2" x="106.72" y="79.39" width="3.61" height="3.61" transform="translate(-15.48 26.49) rotate(-13)"/>
      <rect class="cls-2" x="110.24" y="78.58" width="3.61" height="3.61" transform="translate(-15.21 27.26) rotate(-13)"/>
      <rect class="cls-2" x="40.64" y="98.36" width="3.61" height="3.61" transform="translate(-21.44 12.11) rotate(-13)"/>
      <rect class="cls-2" x="47.68" y="96.73" width="3.61" height="3.61" transform="translate(-20.9 13.66) rotate(-13)"/>
      <rect class="cls-2" x="51.2" y="95.92" width="3.61" height="3.61" transform="translate(-20.62 14.43) rotate(-13)"/>
      <rect class="cls-2" x="54.72" y="95.1" width="3.61" height="3.61" transform="translate(-20.35 15.2) rotate(-13)"/>
      <rect class="cls-2" x="61.76" y="93.48" width="3.61" height="3.61" transform="translate(-19.81 16.74) rotate(-13)"/>
      <rect class="cls-2" x="68.8" y="91.85" width="3.61" height="3.61" transform="translate(-19.26 18.28) rotate(-13)"/>
      <rect class="cls-2" x="72.32" y="91.04" width="3.61" height="3.61" transform="translate(-18.99 19.06) rotate(-13)"/>
      <rect class="cls-2" x="79.36" y="89.41" width="3.61" height="3.61" transform="translate(-18.44 20.6) rotate(-13)"/>
      <rect class="cls-2" x="86.4" y="87.79" width="3.61" height="3.61" transform="translate(-17.89 22.14) rotate(-13)"/>
      <rect class="cls-2" x="96.97" y="85.35" width="3.61" height="3.61" transform="translate(-17.07 24.45) rotate(-13)"/>
      <rect class="cls-2" x="100.49" y="84.54" width="3.61" height="3.61" transform="translate(-16.8 25.22) rotate(-13)"/>
      <rect class="cls-2" x="104.01" y="83.72" width="3.61" height="3.61" transform="translate(-16.53 26) rotate(-13)"/>
      <rect class="cls-2" x="41.45" y="101.88" width="3.61" height="3.61" transform="translate(-22.21 12.39) rotate(-13)"/>
      <rect class="cls-2" x="48.49" y="100.25" width="3.61" height="3.61" transform="translate(-21.67 13.93) rotate(-13)"/>
      <rect class="cls-2" x="52.01" y="99.44" width="3.61" height="3.61" transform="translate(-21.4 14.7) rotate(-13)"/>
      <rect class="cls-2" x="55.53" y="98.62" width="3.61" height="3.61" transform="translate(-21.12 15.47) rotate(-13)"/>
      <rect class="cls-2" x="62.57" y="97" width="3.61" height="3.61" transform="translate(-20.58 17.01) rotate(-13)"/>
      <rect class="cls-2" x="69.62" y="95.37" width="3.61" height="3.61" transform="translate(-20.03 18.56) rotate(-13)"/>
      <rect class="cls-2" x="76.66" y="93.75" width="3.61" height="3.61" transform="translate(-19.48 20.1) rotate(-13)"/>
      <rect class="cls-2" x="80.18" y="92.94" width="3.61" height="3.61" transform="translate(-19.21 20.87) rotate(-13)"/>
      <rect class="cls-2" x="83.7" y="92.12" width="3.61" height="3.61" transform="translate(-18.94 21.64) rotate(-13)"/>
      <rect class="cls-2" x="87.22" y="91.31" width="3.61" height="3.61" transform="translate(-18.66 22.41) rotate(-13)"/>
      <rect class="cls-2" x="90.74" y="90.5" width="3.61" height="3.61" transform="translate(-18.39 23.18) rotate(-13)"/>
      <rect class="cls-2" x="94.26" y="89.68" width="3.61" height="3.61" transform="translate(-18.12 23.95) rotate(-13)"/>
      <rect class="cls-2" x="104.82" y="87.25" width="3.61" height="3.61" transform="translate(-17.3 26.27) rotate(-13)"/>
      <rect class="cls-2" x="42.26" y="105.4" width="3.61" height="3.61" transform="translate(-22.99 12.66) rotate(-13)"/>
      <rect class="cls-2" x="49.3" y="103.77" width="3.61" height="3.61" transform="translate(-22.44 14.2) rotate(-13)"/>
      <rect class="cls-2" x="52.82" y="102.96" width="3.61" height="3.61" transform="translate(-22.17 14.97) rotate(-13)"/>
      <rect class="cls-2" x="56.35" y="102.15" width="3.61" height="3.61" transform="translate(-21.89 15.75) rotate(-13)"/>
      <rect class="cls-2" x="63.39" y="100.52" width="3.61" height="3.61" transform="translate(-21.35 17.29) rotate(-13)"/>
      <rect class="cls-2" x="70.43" y="98.89" width="3.61" height="3.61" transform="translate(-20.8 18.83) rotate(-13)"/>
      <rect class="cls-2" x="84.51" y="95.64" width="3.61" height="3.61" transform="translate(-19.71 21.91) rotate(-13)"/>
      <rect class="cls-2" x="91.55" y="94.02" width="3.61" height="3.61" transform="translate(-19.16 23.46) rotate(-13)"/>
      <rect class="cls-2" x="95.07" y="93.2" width="3.61" height="3.61" transform="translate(-18.89 24.23) rotate(-13)"/>
      <rect class="cls-2" x="43.08" y="108.92" width="3.61" height="3.61" transform="translate(-23.76 12.93) rotate(-13)"/>
      <rect class="cls-2" x="64.2" y="104.04" width="3.61" height="3.61" transform="translate(-22.12 17.56) rotate(-13)"/>
      <rect class="cls-2" x="71.24" y="102.41" width="3.61" height="3.61" transform="translate(-21.57 19.1) rotate(-13)"/>
      <rect class="cls-2" x="74.76" y="101.6" width="3.61" height="3.61" transform="translate(-21.3 19.87) rotate(-13)"/>
      <rect class="cls-2" x="78.28" y="100.79" width="3.61" height="3.61" transform="translate(-21.03 20.65) rotate(-13)"/>
      <rect class="cls-2" x="81.8" y="99.98" width="3.61" height="3.61" transform="translate(-20.75 21.42) rotate(-13)"/>
      <rect class="cls-2" x="85.32" y="99.16" width="3.61" height="3.61" transform="translate(-20.48 22.19) rotate(-13)"/>
      <rect class="cls-2" x="88.84" y="98.35" width="3.61" height="3.61" transform="translate(-20.21 22.96) rotate(-13)"/>
      <rect class="cls-2" x="92.36" y="97.54" width="3.61" height="3.61" transform="translate(-19.93 23.73) rotate(-13)"/>
      <rect class="cls-2" x="95.88" y="96.73" width="3.61" height="3.61" transform="translate(-19.66 24.5) rotate(-13)"/>
      <rect class="cls-2" x="102.93" y="95.1" width="3.61" height="3.61" transform="translate(-19.11 26.04) rotate(-13)"/>
      <rect class="cls-2" x="106.45" y="94.29" width="3.61" height="3.61" transform="translate(-18.84 26.81) rotate(-13)"/>
      <rect class="cls-2" x="113.49" y="92.66" width="3.61" height="3.61" transform="translate(-18.3 28.36) rotate(-13)"/>
      <rect class="cls-2" x="43.89" y="112.44" width="3.61" height="3.61" transform="translate(-24.53 13.21) rotate(-13)"/>
      <rect class="cls-2" x="47.41" y="111.62" width="3.61" height="3.61" transform="translate(-24.26 13.98) rotate(-13)"/>
      <rect class="cls-2" x="50.93" y="110.81" width="3.61" height="3.61" transform="translate(-23.98 14.75) rotate(-13)"/>
      <rect class="cls-2" x="54.45" y="110" width="3.61" height="3.61" transform="translate(-23.71 15.52) rotate(-13)"/>
      <rect class="cls-2" x="57.97" y="109.19" width="3.61" height="3.61" transform="translate(-23.44 16.29) rotate(-13)"/>
      <rect class="cls-2" x="61.49" y="108.37" width="3.61" height="3.61" transform="translate(-23.16 17.06) rotate(-13)"/>
      <rect class="cls-2" x="65.01" y="107.56" width="3.61" height="3.61" transform="translate(-22.89 17.83) rotate(-13)"/>
      <rect class="cls-2" x="72.05" y="105.94" width="3.61" height="3.61" transform="translate(-22.34 19.38) rotate(-13)"/>
      <rect class="cls-2" x="79.09" y="104.31" width="3.61" height="3.61" transform="translate(-21.8 20.92) rotate(-13)"/>
      <rect class="cls-2" x="86.14" y="102.68" width="3.61" height="3.61" transform="translate(-21.25 22.46) rotate(-13)"/>
      <rect class="cls-2" x="96.7" y="100.25" width="3.61" height="3.61" transform="translate(-20.43 24.77) rotate(-13)"/>
      <rect class="cls-2" x="107.26" y="97.81" width="3.61" height="3.61" transform="translate(-19.61 27.09) rotate(-13)"/>
    </g>
  </g>
</svg>