<?xml version="1.0" encoding="UTF-8"?>
<svg id="Layer_2" data-name="Layer 2" xmlns="http://www.w3.org/2000/svg" viewBox="0 0 144.73 141.82">
  <defs>
    <style>
      .cls-1 {
        fill: #fff;
      }

      .cls-2 {
        font-size: 15.37px;
      }

      .cls-2, .cls-3 {
        fill: #ff4800;
        font-family: GoudyBookletter1911, 'Goudy Bookletter 1911';
      }

      .cls-3 {
        font-size: 48.43px;
      }
    </style>
  </defs>
  <g id="Layer_1-2" data-name="Layer 1">
    <path class="cls-1" d="M132.14,57.11c-1.63-7.04,6-17.73,2.47-23.6-3.66-6.09-16.74-4.34-21.99-8.9-5.31-4.6-5.42-17.79-11.88-20.54-6.4-2.72-15.95,6.32-23.02,5.7-6.83-.6-14.64-11.24-21.68-9.61-7.04,1.63-9.4,14.61-15.27,18.14-6.09,3.66-18.63-.29-23.19,4.97-4.6,5.31,1.07,17.2-1.68,23.67C13.17,53.34,.64,57.5,.02,64.58c-.6,6.83,10.95,13.09,12.57,20.13,1.63,7.04-6,17.73-2.47,23.6,3.66,6.09,16.74,4.34,21.99,8.9,5.31,4.6,5.42,17.79,11.88,20.54,6.4,2.72,15.95-6.32,23.02-5.7,6.83,.6,14.64,11.24,21.68,9.61s9.4-14.61,15.27-18.14c6.09-3.66,18.63,.29,23.19-4.97,4.6-5.31-1.07-17.2,1.68-23.67,2.72-6.4,15.25-10.56,15.87-17.64,.6-6.83-10.95-13.09-12.57-20.13Z"/>
    <text class="cls-2" transform="translate(98.74 47.75) rotate(57.77)"><tspan x="0" y="0">T</tspan></text>
    <text class="cls-2" transform="translate(103.95 56.36) rotate(70.72)"><tspan x="0" y="0">e</tspan></text>
    <text class="cls-2" transform="translate(106.17 61.66) rotate(83.8)"><tspan x="0" y="0">m</tspan></text>
    <text class="cls-2" transform="translate(107.16 72.12) rotate(98.16)"><tspan x="0" y="0">p</tspan></text>
    <text class="cls-2" transform="translate(106.18 79.15) rotate(109.43)"><tspan x="0" y="0">o</tspan></text>
    <text class="cls-2" transform="translate(103.9 85.52) rotate(119.07)"><tspan x="0" y="0">r</tspan></text>
    <text class="cls-2" transform="translate(101.49 89.99) rotate(128.13)"><tspan x="0" y="0">a</tspan></text>
    <text class="cls-2" transform="translate(97.72 94.79) rotate(137.26)"><tspan x="0" y="0">r</tspan></text>
    <text class="cls-2" transform="translate(94.06 98.31) rotate(146.98)"><tspan x="0" y="0">y</tspan></text>
    <text class="cls-2" transform="translate(88.28 101.94) rotate(155.17)"><tspan x="0" y="0">.</tspan></text>
    <text class="cls-2" transform="translate(85.34 103.32) rotate(160.49)"><tspan x="0" y="0">.</tspan></text>
    <text class="cls-2" transform="translate(82.28 104.4) rotate(165.45)"><tspan x="0" y="0">.</tspan></text>
    <text class="cls-2" transform="translate(79.39 105.53) rotate(176.46)"><tspan x="0" y="0">T</tspan></text>
    <text class="cls-2" transform="translate(69.34 105.97) rotate(-170.56)"><tspan x="0" y="0">e</tspan></text>
    <text class="cls-2" transform="translate(63.61 105.37) rotate(-157.3)"><tspan x="0" y="0">m</tspan></text>
    <text class="cls-2" transform="translate(54 101.19) rotate(-143.15)"><tspan x="0" y="0">p</tspan></text>
    <text class="cls-2" transform="translate(48.29 96.95) rotate(-131.92)"><tspan x="0" y="0">o</tspan></text>
    <text class="cls-2" transform="translate(43.8 91.9) rotate(-122.18)"><tspan x="0" y="0">r</tspan></text>
    <text class="cls-2" transform="translate(41.03 87.62) rotate(-112.98)"><tspan x="0" y="0">a</tspan></text>
    <text class="cls-2" transform="translate(38.68 81.99) rotate(-104.55)"><tspan x="0" y="0">r</tspan></text>
    <text class="cls-2" transform="translate(37.33 77.09) rotate(-94.3)"><tspan x="0" y="0">y</tspan></text>
    <text class="cls-2" transform="translate(36.92 70.28) rotate(-86.12)"><tspan x="0" y="0">.</tspan></text>
    <text class="cls-2" transform="translate(37.13 67.05) rotate(-80.78)"><tspan x="0" y="0">.</tspan></text>
    <text class="cls-2" transform="translate(37.64 63.85) rotate(-75.46)"><tspan x="0" y="0">.</tspan></text>
    <text class="cls-2" transform="translate(38.04 60.78) rotate(-64.69)"><tspan x="0" y="0">T</tspan></text>
    <text class="cls-2" transform="translate(42.51 51.76) rotate(-51.87)"><tspan x="0" y="0">e</tspan></text>
    <text class="cls-2" transform="translate(45.8 47.02) rotate(-38.61)"><tspan x="0" y="0">m</tspan></text>
    <text class="cls-2" transform="translate(54.07 40.59) rotate(-24.29)"><tspan x="0" y="0">p</tspan></text>
    <text class="cls-2" transform="translate(60.55 37.61) rotate(-12.7)"><tspan x="0" y="0">o</tspan></text>
    <text class="cls-2" transform="translate(67.13 36.15) rotate(-3.49)"><tspan x="0" y="0">r</tspan></text>
    <text class="cls-2" transform="translate(72.21 35.76) rotate(5.69)"><tspan x="0" y="0">a</tspan></text>
    <text class="cls-2" transform="translate(78.27 36.37) rotate(14.89)"><tspan x="0" y="0">r</tspan></text>
    <text class="cls-2" transform="translate(83.21 37.58) rotate(24.54)"><tspan x="0" y="0">y</tspan></text>
    <text class="cls-2" transform="translate(89.39 40.52) rotate(32.66)"><tspan x="0" y="0">.</tspan></text>
    <text class="cls-2" transform="translate(92.14 42.26) rotate(37.96)"><tspan x="0" y="0">.</tspan></text>
    <text class="cls-2" transform="translate(94.7 44.25) rotate(43.24)"><tspan x="0" y="0">.</tspan></text>
    <text class="cls-3" transform="translate(60.29 53.02) rotate(90)"><tspan x="0" y="0">:‑)</tspan></text>
  </g>
</svg>